<svg width="40" height="40" viewBox="0 0 40 40" fill="none" xmlns="http://www.w3.org/2000/svg">
<g clip-path="url(#clip0)">
<path d="M18.0883 15.7317L11.1783 8.82167L13.3333 6.66667L6.66667 0L0 6.66667L6.66667 13.3333L8.82167 11.1783L15.315 17.6717L18.0883 15.7317Z" fill="white"/>
<path d="M31.5661 23.2328C31.0511 23.2928 30.5295 23.3328 29.9995 23.3328C29.4911 23.3328 28.9861 23.3028 28.4795 23.2445L22.4111 30.7428L29.9411 38.2728C32.2428 40.5745 35.9728 40.5745 38.2745 38.2728C40.5761 35.9712 40.5761 32.2412 38.2745 29.9395L31.5661 23.2328Z" fill="white"/>
<path d="M33.7851 11.285L28.7151 6.215L34.0618 0.868333C32.8201 0.315 31.4484 0 30.0001 0C24.4768 0 20.0001 4.47667 20.0001 10C20.0001 10.99 20.1484 11.9433 20.4168 12.8467L2.43511 27.3967C0.950113 28.7083 0.0634465 30.595 0.00344648 32.5733C-0.0582202 34.5533 0.710113 36.4917 2.11011 37.89C3.47011 39.2517 5.27845 40 7.20178 40C9.26678 40 11.2368 39.1133 12.6034 37.565L27.1534 19.5833C28.0568 19.8517 29.0101 20 30.0001 20C35.5234 20 40.0001 15.5233 40.0001 10C40.0001 8.55167 39.6851 7.18 39.1318 5.93667L33.7851 11.285Z" fill="white"/>
</g>
<defs>
<clipPath id="clip0">
<rect width="40" height="40" fill="white"/>
</clipPath>
</defs>
</svg>
